M48
; DRILL file {KiCad (5.1.2)-1} date 7/31/2019 1:32:55 AM
; FORMAT={-:-/ absolute / inch / decimal}
; #@! TF.CreationDate,2019-07-31T01:32:55-07:00
; #@! TF.GenerationSoftware,Kicad,Pcbnew,(5.1.2)-1
; #@! TF.FileFunction,Plated,1,2,PTH
FMAT,2
INCH
T1C0.0157
T2C0.0236
T3C0.0335
T4C0.0394
T5C0.0591
T6C0.0866
%
G90
G05
T1
X2.89Y-1.79
X3.86Y-2.22
X5.05Y-2.04
X5.81Y-2.46
X6.08Y-1.95
X6.2Y-2.06
X6.82Y-2.13
X6.89Y-2.13
X6.96Y-2.13
X6.97Y-2.7
X7.03Y-2.13
X7.23Y-1.94
X7.24Y-2.35
X7.29Y-1.49
X7.49Y-1.9
X7.49Y-1.98
X7.67Y-1.62
X7.69Y-2.04
X7.76Y-1.91
X7.76Y-2.63
X7.78Y-1.49
X7.78Y-1.62
X7.83Y-2.82
X7.84Y-2.0
X7.8405Y-2.1863
X7.8714Y-2.29
X7.95Y-3.32
X7.96Y-3.46
X8.04Y-3.31
X8.07Y-3.43
X8.12Y-2.24
X8.13Y-2.53
X8.15Y-2.28
X8.17Y-3.31
X8.17Y-3.39
X8.2569Y-1.8469
X8.3Y-1.85
X8.3Y-2.05
X8.32Y-2.45
X8.3422Y-5.5978
X8.3495Y-1.8495
X8.35Y-1.5
X8.36Y-2.38
X8.39Y-1.8494
X8.3912Y-1.8888
X8.4Y-2.38
X8.43Y-1.5
X8.44Y-1.75
X8.46Y-4.0
X8.46Y-4.5
X8.51Y-3.35
X8.6Y-1.84
X8.7507Y-1.6307
X8.87Y-1.71
X8.88Y-2.67
X9.01Y-1.5183
X9.37Y-1.87
X9.38Y-1.72
X9.65Y-2.47
X10.85Y-2.05
X11.58Y-1.86
X12.35Y-2.48
X13.56Y-2.44
X14.36Y-1.86
T3
X8.0302Y-1.5521
X8.227Y-1.5521
T4
X7.0788Y-1.4619
X6.4788Y-1.4619
X9.7088Y-1.4619
X6.6788Y-1.4619
X9.4088Y-1.4619
X6.7788Y-1.4619
X9.6088Y-1.4619
X7.1788Y-1.4619
X9.9088Y-1.4619
X6.8788Y-1.4619
X6.9788Y-1.4619
X6.5788Y-1.4619
X9.8088Y-1.4619
X9.5088Y-1.4619
T5
X14.6103Y-2.6432
X14.8603Y-2.5432
X9.3824Y-4.9637
X9.6062Y-4.8139
X12.7669Y-4.1432
X13.0169Y-4.0432
X5.2888Y-4.6481
X5.5542Y-4.6022
X11.5889Y-2.7784
X11.8127Y-2.6286
X3.1034Y-3.3429
X3.3534Y-3.2429
X10.7581Y-4.6714
X10.9819Y-4.5216
X2.4157Y-1.8429
X2.6657Y-1.7429
X10.516Y-2.2398
X10.7397Y-2.09
X5.3606Y-2.127
X5.6259Y-2.0812
X8.6006Y-2.8712
X8.8133Y-2.7062
X6.547Y-2.5819
X6.8149Y-2.5547
X6.1338Y-4.0238
X6.4017Y-3.9966
X2.1968Y-2.5929
X2.4468Y-2.4929
X12.5166Y-1.8932
X12.7666Y-1.7932
X14.0166Y-1.8932
X14.2666Y-1.7932
X13.2666Y-1.8932
X13.5166Y-1.7932
X5.4129Y-3.8171
X5.6808Y-3.7899
X13.7042Y-4.1432
X13.9542Y-4.0432
X3.353Y-1.8429
X3.603Y-1.7429
X10.4559Y-3.8994
X10.6687Y-3.7343
X4.6271Y-1.9711
X4.8924Y-1.9253
X11.9282Y-3.4729
X12.152Y-3.3231
X3.0166Y-4.0929
X3.2666Y-3.9929
X9.8886Y-3.282
X10.1014Y-3.117
X3.2282Y-2.5929
X3.4782Y-2.4929
X6.4808Y-4.9014
X6.7461Y-4.8556
X12.7666Y-3.3932
X13.0166Y-3.2932
X5.0212Y-2.8215
X5.2865Y-2.7756
X7.2679Y-2.7886
X7.5357Y-2.7614
X11.1946Y-3.6288
X11.4183Y-3.479
X14.1728Y-3.3932
X14.4228Y-3.2932
X13.3916Y-2.6432
X13.6416Y-2.5432
X4.6818Y-3.516
X4.9472Y-3.4701
X3.9484Y-3.3601
X4.2137Y-3.3142
X9.7351Y-4.1061
X9.9478Y-3.941
X1.8847Y-4.0929
X2.1347Y-3.9929
X11.2496Y-2.0839
X11.4733Y-1.9341
X5.9799Y-3.1994
X6.2478Y-3.1722
X9.1677Y-3.4887
X9.3805Y-3.3237
X12.6416Y-2.6432
X12.8916Y-2.5432
X14.6417Y-4.1432
X14.8917Y-4.0432
X1.8847Y-3.3429
X2.1347Y-3.2429
X9.3214Y-2.6645
X9.5342Y-2.4995
X4.2877Y-2.6656
X4.5531Y-2.6197
X6.7007Y-3.4061
X6.9686Y-3.3789
X14.7666Y-1.8932
X15.0166Y-1.7932
X10.8553Y-2.9343
X11.0791Y-2.7845
T6
X8.9063Y-5.1563
X15.3751Y-4.3594
X1.3125Y-4.3125
X5.0625Y-1.5469
X1.3594Y-1.7813
X7.2657Y-5.1563
X15.3751Y-1.7813
X10.2421Y-1.7091
T2
G00X7.9908Y-1.4596
M15
G01X7.9908Y-1.432
M16
G05
G00X8.2664Y-1.432
M15
G01X8.2664Y-1.4596
M16
G05
T0
M30
