G04 #@! TF.GenerationSoftware,KiCad,Pcbnew,(5.1.2)-1*
G04 #@! TF.CreationDate,2019-07-31T01:32:42-07:00*
G04 #@! TF.ProjectId,arisu,61726973-752e-46b6-9963-61645f706362,1.1*
G04 #@! TF.SameCoordinates,Original*
G04 #@! TF.FileFunction,Legend,Top*
G04 #@! TF.FilePolarity,Positive*
%FSLAX46Y46*%
G04 Gerber Fmt 4.6, Leading zero omitted, Abs format (unit mm)*
G04 Created by KiCad (PCBNEW (5.1.2)-1) date 2019-07-31 01:32:42*
%MOMM*%
%LPD*%
G04 APERTURE LIST*
%ADD10C,2.302000*%
%ADD11C,4.102000*%
%ADD12C,1.802000*%
%ADD13C,3.152000*%
%ADD14C,4.502000*%
%ADD15C,1.552000*%
%ADD16O,1.302000X2.002000*%
%ADD17R,1.802000X1.802000*%
G04 APERTURE END LIST*
%LPC*%
D10*
X381421479Y-45546218D03*
X375071479Y-48086218D03*
D11*
X378881479Y-50626218D03*
D12*
X373801479Y-50626218D03*
X383961479Y-50626218D03*
D10*
X354435890Y-102696203D03*
X348085890Y-105236203D03*
D11*
X351895890Y-107776203D03*
D12*
X346815890Y-107776203D03*
X356975890Y-107776203D03*
X333168390Y-107776203D03*
X323008390Y-107776203D03*
D11*
X328088390Y-107776203D03*
D10*
X324278390Y-105236203D03*
X330628390Y-102696203D03*
D12*
X380788390Y-107776203D03*
X370628390Y-107776203D03*
D11*
X375708390Y-107776203D03*
D10*
X371898390Y-105236203D03*
X378248390Y-102696203D03*
D13*
X255664206Y-132144090D03*
X232384293Y-137092388D03*
D11*
X229215719Y-122185418D03*
X252495632Y-117237120D03*
D12*
X247537857Y-126715014D03*
X237599878Y-128827397D03*
D11*
X242568868Y-127771205D03*
D10*
X238314030Y-126078854D03*
X243997171Y-122274120D03*
D13*
X375700229Y-81726218D03*
X351900229Y-81726218D03*
D11*
X351900229Y-96966218D03*
X375700229Y-96966218D03*
D12*
X368880229Y-88726218D03*
X358720229Y-88726218D03*
D11*
X363800229Y-88726218D03*
D10*
X359990229Y-86186218D03*
X366340229Y-83646218D03*
D13*
X386812729Y-76676218D03*
X363012729Y-76676218D03*
D11*
X363012729Y-61436218D03*
X386812729Y-61436218D03*
D12*
X379992729Y-69676218D03*
X369832729Y-69676218D03*
D11*
X374912729Y-69676218D03*
D10*
X371102729Y-67136218D03*
X377452729Y-64596218D03*
X362371479Y-45546218D03*
X356021479Y-48086218D03*
D11*
X359831479Y-50626218D03*
D12*
X354751479Y-50626218D03*
X364911479Y-50626218D03*
D10*
X346496479Y-64596218D03*
X340146479Y-67136218D03*
D11*
X343956479Y-69676218D03*
D12*
X338876479Y-69676218D03*
X349036479Y-69676218D03*
D10*
X343321479Y-45546218D03*
X336971479Y-48086218D03*
D11*
X340781479Y-50626218D03*
D12*
X335701479Y-50626218D03*
X345861479Y-50626218D03*
D10*
X330621479Y-83646218D03*
X324271479Y-86186218D03*
D11*
X328081479Y-88726218D03*
D12*
X323001479Y-88726218D03*
X333161479Y-88726218D03*
D10*
X327446479Y-64596218D03*
X321096479Y-67136218D03*
D11*
X324906479Y-69676218D03*
D12*
X319826479Y-69676218D03*
X329986479Y-69676218D03*
D10*
X324271479Y-45546218D03*
X317921479Y-48086218D03*
D11*
X321731479Y-50626218D03*
D12*
X316651479Y-50626218D03*
X326811479Y-50626218D03*
X282480216Y-119290283D03*
X272542236Y-121402666D03*
D11*
X277511226Y-120346475D03*
D10*
X273256388Y-118654123D03*
X278939529Y-114849389D03*
X308659649Y-84405855D03*
X302976508Y-88210589D03*
D11*
X307231346Y-89902940D03*
D12*
X302262356Y-90959131D03*
X312200336Y-88846749D03*
D10*
X300042149Y-66765855D03*
X294359008Y-70570589D03*
D11*
X298613846Y-72262940D03*
D12*
X293644856Y-73319131D03*
X303582836Y-71206749D03*
D10*
X291422149Y-49125855D03*
X285739008Y-52930589D03*
D11*
X289993846Y-54622940D03*
D12*
X285024856Y-55679131D03*
X294962836Y-53566749D03*
D10*
X290025939Y-88366575D03*
X284342798Y-92171309D03*
D11*
X288597636Y-93863660D03*
D12*
X283628646Y-94919851D03*
X293566626Y-92807469D03*
D10*
X281408439Y-70726575D03*
X275725298Y-74531309D03*
D11*
X279980136Y-76223660D03*
D12*
X275011146Y-77279851D03*
X284949126Y-75167469D03*
D10*
X272788439Y-53086575D03*
X267105298Y-56891309D03*
D11*
X271360136Y-58583660D03*
D12*
X266391146Y-59639851D03*
X276329126Y-57527469D03*
D10*
X270984430Y-94851956D03*
X265580538Y-99043857D03*
D11*
X269943063Y-100435284D03*
D12*
X265059854Y-101835522D03*
X274826273Y-99035046D03*
D10*
X256574430Y-79171956D03*
X251170538Y-83363857D03*
D11*
X255533063Y-84755284D03*
D12*
X250649854Y-86155522D03*
X260416273Y-83355046D03*
D10*
X242168413Y-63487401D03*
X236764521Y-67679302D03*
D11*
X241127046Y-69070729D03*
D12*
X236243837Y-70470967D03*
X246010256Y-67670491D03*
D10*
X252674430Y-100101956D03*
X247270538Y-104293857D03*
D11*
X251633063Y-105685284D03*
D12*
X246749854Y-107085522D03*
X256516273Y-104285046D03*
D10*
X238264430Y-84421956D03*
X232860538Y-88613857D03*
D11*
X237223063Y-90005284D03*
D12*
X232339854Y-91405522D03*
X242106273Y-88605046D03*
D10*
X223858413Y-68737401D03*
X218454521Y-72929302D03*
D11*
X222817046Y-74320729D03*
D12*
X217933837Y-75720967D03*
X227700256Y-72920491D03*
D13*
X177995892Y-137094326D03*
X154715979Y-132146027D03*
D11*
X157884553Y-117239058D03*
X181164466Y-122187356D03*
D12*
X172780307Y-128829335D03*
X162842327Y-126716952D03*
D11*
X167811317Y-127773143D03*
D10*
X164612670Y-124496505D03*
X171352003Y-123332249D03*
X162602997Y-101513530D03*
X155798867Y-102204837D03*
D11*
X158761155Y-105696620D03*
D12*
X153877945Y-104296383D03*
X163644364Y-107096858D03*
D10*
X177002997Y-85823530D03*
X170198867Y-86514837D03*
D11*
X173161155Y-90006620D03*
D12*
X168277945Y-88606383D03*
X178044364Y-91406858D03*
D10*
X191407997Y-70138530D03*
X184603867Y-70829837D03*
D11*
X187566155Y-74321620D03*
D12*
X182682945Y-72921383D03*
X192449364Y-75721858D03*
D10*
X141075933Y-116896801D03*
X134336600Y-118061056D03*
D11*
X137535247Y-121337695D03*
D12*
X132566257Y-120281503D03*
X142504237Y-122393886D03*
D10*
X144292997Y-96263530D03*
X137488867Y-96954837D03*
D11*
X140451155Y-100446620D03*
D12*
X135567945Y-99046383D03*
X145334364Y-101846858D03*
D10*
X158692997Y-80573530D03*
X151888867Y-81264837D03*
D11*
X154851155Y-84756620D03*
D12*
X149967945Y-83356383D03*
X159734364Y-86156858D03*
D10*
X173097997Y-64888530D03*
X166293867Y-65579837D03*
D11*
X169256155Y-69071620D03*
D12*
X164372945Y-67671383D03*
X174139364Y-70471858D03*
D10*
X125657766Y-88141478D03*
X118918433Y-89305733D03*
D11*
X122117080Y-92582372D03*
D12*
X117148090Y-91526180D03*
X127086070Y-93638563D03*
D10*
X134277766Y-70501478D03*
X127538433Y-71665733D03*
D11*
X130737080Y-74942372D03*
D12*
X125768090Y-73886180D03*
X135706070Y-75998563D03*
D10*
X142897766Y-52861478D03*
X136158433Y-54025733D03*
D11*
X139357080Y-57302372D03*
D12*
X134388090Y-56246180D03*
X144326070Y-58358563D03*
X85511833Y-106500157D03*
X75351833Y-106500157D03*
D11*
X80431833Y-106500157D03*
D10*
X76621833Y-103960157D03*
X82971833Y-101420157D03*
X107027766Y-84181478D03*
X100288433Y-85345733D03*
D11*
X103487080Y-88622372D03*
D12*
X98518090Y-87566180D03*
X108456070Y-89678563D03*
D10*
X115647766Y-66541478D03*
X108908433Y-67705733D03*
D11*
X112107080Y-70982372D03*
D12*
X107138090Y-69926180D03*
X117076070Y-72038563D03*
D10*
X124267766Y-48901478D03*
X117528433Y-50065733D03*
D11*
X120727080Y-53342372D03*
D12*
X115758090Y-52286180D03*
X125696070Y-54398563D03*
D10*
X85175583Y-82370157D03*
X78825583Y-84910157D03*
D11*
X82635583Y-87450157D03*
D12*
X77555583Y-87450157D03*
X87715583Y-87450157D03*
D10*
X88345583Y-63320157D03*
X81995583Y-65860157D03*
D11*
X85805583Y-68400157D03*
D12*
X80725583Y-68400157D03*
X90885583Y-68400157D03*
D10*
X91515583Y-44270157D03*
X85165583Y-46810157D03*
D11*
X88975583Y-49350157D03*
D12*
X83895583Y-49350157D03*
X94055583Y-49350157D03*
X56761833Y-106500157D03*
X46601833Y-106500157D03*
D11*
X51681833Y-106500157D03*
D10*
X47871833Y-103960157D03*
X54221833Y-101420157D03*
D13*
X63581833Y-80450157D03*
X39781833Y-80450157D03*
D11*
X39781833Y-95690157D03*
X63581833Y-95690157D03*
D12*
X56761833Y-87450157D03*
X46601833Y-87450157D03*
D11*
X51681833Y-87450157D03*
D10*
X47871833Y-84910157D03*
X54221833Y-82370157D03*
D12*
X64689333Y-68400157D03*
X54529333Y-68400157D03*
D11*
X59609333Y-68400157D03*
D10*
X55799333Y-65860157D03*
X62149333Y-63320157D03*
D12*
X70248083Y-49350157D03*
X60088083Y-49350157D03*
D11*
X65168083Y-49350157D03*
D10*
X61358083Y-46810157D03*
X67708083Y-44270157D03*
D14*
X226219700Y-130969300D03*
X390526640Y-110728590D03*
D15*
X203966235Y-39423670D03*
X208966235Y-39423670D03*
D16*
X202966235Y-36723670D03*
X209966235Y-36723670D03*
D17*
X251682380Y-37131670D03*
X249142380Y-37131670D03*
X246602380Y-37131670D03*
X244062380Y-37131670D03*
X241522380Y-37131670D03*
X238982380Y-37131670D03*
X172180380Y-37131670D03*
X169640380Y-37131670D03*
X167100380Y-37131670D03*
X164560380Y-37131670D03*
X182340380Y-37131670D03*
X177260380Y-37131670D03*
X179800380Y-37131670D03*
X174720380Y-37131670D03*
D14*
X34528270Y-45243940D03*
X33337640Y-109537960D03*
X128588040Y-39290790D03*
X184547650Y-130969300D03*
X260149165Y-43410699D03*
X390526640Y-45243940D03*
M02*
