M48
; DRILL file {KiCad (5.1.2)-1} date 7/31/2019 1:32:55 AM
; FORMAT={-:-/ absolute / inch / decimal}
; #@! TF.CreationDate,2019-07-31T01:32:55-07:00
; #@! TF.GenerationSoftware,Kicad,Pcbnew,(5.1.2)-1
; #@! TF.FileFunction,NonPlated,1,2,NPTH
FMAT,2
INCH
T1C0.0669
T2C0.1201
T3C0.1575
%
G90
G05
T1
X4.5574Y-2.0585
X4.9487Y-2.1417
X11.9001Y-3.5811
X12.2914Y-3.4979
X2.9666Y-4.1929
X3.3666Y-4.1929
X9.8681Y-3.3919
X10.2526Y-3.2817
X3.1782Y-2.6929
X3.5782Y-2.6929
X6.4111Y-4.9889
X6.8024Y-5.072
X12.7166Y-3.4932
X13.1166Y-3.4932
X4.9515Y-2.9089
X5.3428Y-2.9921
X7.1922Y-2.8709
X7.5767Y-2.9812
X11.1665Y-3.737
X11.5577Y-3.6538
X14.1228Y-3.4932
X14.5228Y-3.4932
X13.3416Y-2.7432
X13.7416Y-2.7432
X4.6121Y-3.6034
X5.0034Y-3.6866
X3.8787Y-3.4475
X4.2699Y-3.5307
X9.7146Y-4.216
X10.0991Y-4.1057
X1.8347Y-4.1929
X2.2347Y-4.1929
X11.2215Y-2.1921
X11.6127Y-2.1089
X5.9042Y-3.2817
X6.2888Y-3.392
X9.1472Y-3.5986
X9.5317Y-3.4884
X12.5916Y-2.7432
X12.9916Y-2.7432
X14.5917Y-4.2432
X14.9917Y-4.2432
X1.8347Y-3.4429
X2.2347Y-3.4429
X9.3009Y-2.7744
X9.6854Y-2.6642
X4.218Y-2.753
X4.6093Y-2.8362
X6.6251Y-3.4884
X7.0096Y-3.5987
X14.7166Y-1.9932
X15.1166Y-1.9932
X10.8272Y-3.0425
X11.2185Y-2.9593
X14.5603Y-2.7432
X14.9603Y-2.7432
X9.3543Y-5.0719
X9.7456Y-4.9888
X12.7169Y-4.2432
X13.1169Y-4.2432
X5.2191Y-4.7355
X5.6104Y-4.8187
X11.5608Y-2.8866
X11.9521Y-2.8034
X3.0534Y-3.4429
X3.4534Y-3.4429
X10.73Y-4.7796
X11.1213Y-4.6965
X2.3657Y-1.9429
X2.7657Y-1.9429
X10.4878Y-2.348
X10.8791Y-2.2649
X5.2909Y-2.2144
X5.6821Y-2.2976
X8.5801Y-2.9811
X8.9646Y-2.8709
X6.4714Y-2.6642
X6.8559Y-2.7745
X6.0582Y-4.1062
X6.4427Y-4.2164
X2.1468Y-2.6929
X2.5468Y-2.6929
X12.4666Y-1.9932
X12.8666Y-1.9932
X13.9666Y-1.9932
X14.3666Y-1.9932
X13.2166Y-1.9932
X13.6166Y-1.9932
X5.3373Y-3.8995
X5.7218Y-4.0097
X13.6542Y-4.2432
X14.0542Y-4.2432
X3.303Y-1.9429
X3.703Y-1.9429
X10.4354Y-4.0093
X10.8199Y-3.899
T2
X6.0912Y-5.2026
X7.0077Y-5.3974
X13.8543Y-3.2176
X14.7913Y-3.2176
X1.5662Y-3.1673
X2.5032Y-3.1673
X14.2918Y-3.0187
X15.2288Y-3.0187
X9.149Y-5.3973
X10.0655Y-5.2025
T3
X13.5416Y-2.7432
X4.8078Y-3.645
X4.0743Y-3.4891
X9.9068Y-4.1608
X2.0347Y-4.1929
X11.4171Y-2.1505
X6.0965Y-3.3369
X9.3395Y-3.5435
X12.7916Y-2.7432
X14.7917Y-4.2432
X1.5662Y-3.7673
X2.0347Y-3.4429
X2.5032Y-3.7673
X9.4932Y-2.7193
X4.4137Y-2.7946
X6.8174Y-3.5436
X14.9166Y-1.9932
X11.0228Y-3.0009
X14.2918Y-2.4187
X14.7603Y-2.7432
X15.2288Y-2.4187
X9.0242Y-4.8104
X9.55Y-5.0304
X9.9408Y-4.6156
X12.9169Y-4.2432
X5.4148Y-4.7771
X11.7565Y-2.845
X3.2534Y-3.4429
X10.9256Y-4.7381
X2.5657Y-1.9429
X10.6835Y-2.3064
X5.4865Y-2.256
X8.7723Y-2.926
X6.6636Y-2.7194
X6.2504Y-4.1613
X2.3468Y-2.6929
X12.6666Y-1.9932
X14.1666Y-1.9932
X13.4166Y-1.9932
X5.5296Y-3.9546
X13.8542Y-4.2432
X3.503Y-1.9429
X10.6277Y-3.9541
X4.753Y-2.1001
X12.0957Y-3.5395
X3.1666Y-4.1929
X10.0604Y-3.3368
X3.3782Y-2.6929
X6.2159Y-4.6157
X6.6067Y-5.0304
X7.1325Y-4.8105
X12.9166Y-3.4932
X5.1471Y-2.9505
X7.3845Y-2.926
X11.3621Y-3.6954
X13.8543Y-3.8176
X14.3228Y-3.4932
X14.7913Y-3.8176
T0
M30
